#!OML:ASF F:\VICON\USERDATA\INSTALL\rory3\rory3.ASF
:FULLY-SPECIFIED
:DEGREES
565
root 4.95941 19.7375 7.21908 11.1261 -3.37534 -7.93865
lowerback -0.101207 -2.88898 3.55983
upperback -5.68546 -3.59428 3.79669
thorax -5.82342 -1.86372 2.14171
lowerneck -8.36737 -8.50667 -11.0235
upperneck 19.7575 -10.728 3.39904
head 8.31237 -5.62365 1.82782
rclavicle 3.71945e-016 1.49337e-014
rhumerus -47.997 -0.801436 -81.1422
rradius 62.0181
rwrist 4.47762
rhand -21.1316 -59.9132
rfingers 7.12502
rthumb 5.24731 -89.8282
lclavicle 3.71945e-016 1.49337e-014
lhumerus -39.2161 -22.0089 74.9398
lradius 66.4938
lwrist -2.67872
lhand -32.7545 -45.5314
lfingers 7.12502
lthumb -5.97717 -15.6357
rfemur -97.2434 5.54422 20.4398
rtibia 138.126
rfoot -3.80712 -10.3153
rtoes -1.43727
lfemur -3.96428 -4.95217 -14.3272
ltibia -3.18055e-015
lfoot 27.4357 11.5985
ltoes -8.46437
566
root 4.94416 19.8506 7.21579 11.3743 -3.17038 -8.0478
lowerback -0.0537705 -2.92404 3.67479
upperback -5.88115 -3.62143 3.895
thorax -6.06078 -1.88182 2.19593
lowerneck -8.22515 -8.64989 -11.1587
upperneck 19.8466 -10.8993 3.27111
head 8.3326 -5.72938 1.78987
rclavicle 8.16958e-015 2.33572e-015
rhumerus -47.8788 -1.05857 -80.9084
rradius 60.886
rwrist 5.06608
rhand -21.8784 -57.7462
rfingers 7.12502
rthumb 4.52621 -87.6778
lclavicle 8.16958e-015 2.33572e-015
lhumerus -39.6895 -21.9575 75.5748
lradius 66.5459
lwrist -1.89199
lhand -32.0909 -46.0145
lfingers 7.12502
lthumb -5.33649 -16.1017
rfemur -97.6463 5.68113 21.0707
rtibia 138.724
rfoot -3.46231 -10.5262
rtoes -1.24075
lfemur -4.40654 -5.0394 -14.3205
ltibia 1.35174e-014
lfoot 27.5728 13.2483
ltoes -6.42007
567
root 4.94025 19.9481 7.21885 11.4117 -3.1423 -8.13727
lowerback -0.0107352 -2.93672 3.86504
upperback -5.85101 -3.62749 3.95918
thorax -6.06285 -1.89235 2.15946
lowerneck -8.96093 -8.92691 -11.0188
upperneck 20.4615 -11.1201 2.70826
head 8.65154 -5.86932 1.5108
rclavicle 7.69561e-014 -1.28713e-014
rhumerus -47.4887 -0.983859 -81.0034
rradius 60.315
rwrist 4.85279
rhand -24.1388 -56.4508
rfingers 7.12502
rthumb 2.34335 -86.4177
lclavicle 7.69561e-014 -1.28713e-014
lhumerus -39.8174 -21.7048 76.1141
lradius 66.3167
lwrist -1.54956
lhand -32.2973 -45.1306
lfingers 7.12502
lthumb -5.53576 -15.2229
rfemur -97.7392 5.94901 21.5275
rtibia 139.196
rfoot -3.20489 -10.5248
rtoes -0.410981
lfemur -4.51608 -4.98817 -14.4648
ltibia -1.59028e-014
lfoot 27.5399 14.3816
ltoes -5.3774
568
root 4.93375 20.0239 7.20759 11.6954 -2.75556 -7.93618
lowerback -0.0548674 -3.07512 3.80636
upperback -5.91047 -3.81478 3.97037
thorax -6.09498 -1.98272 2.21423
lowerneck -10.775 -9.32399 -10.5833
upperneck 21.9461 -11.3367 1.61157
head 9.42073 -6.03267 0.933168
rclavicle -3.85766e-015 -2.13694e-015
rhumerus -46.9442 -0.81354 -81.1186
rradius 59.6709
rwrist 4.77335
rhand -21.4049 -60.2337
rfingers 7.12502
rthumb 4.98338 90.1551
lclavicle -3.85766e-015 -2.13694e-015
lhumerus -40.0002 -21.2214 76.6139
lradius 66.1579
lwrist -1.71523
lhand -32.5312 -44.1335
lfingers 7.12502
lthumb -5.76164 -14.2318
rfemur -98.2489 5.16546 21.8482
rtibia 139.759
rfoot -3.1671 -10.0647
rtoes 0.125374
lfemur -5.13972 -5.32678 -14.8358
ltibia -7.95139e-016
lfoot 27.9081 13.6664
ltoes -8.0443
569
root 4.93259 20.0851 7.21964 11.7679 -2.8134 -7.81271
lowerback -0.163882 -3.07462 3.91208
upperback -5.94691 -3.8179 3.92667
thorax -6.08178 -1.99123 2.10544
lowerneck -9.74098 -9.02569 -10.9753
upperneck 21.1213 -11.1189 2.37519
head 8.99896 -5.89202 1.34454
rclavicle 9.47333e-017 -1.87852e-014
rhumerus -46.5585 -0.513076 -81.2269
rradius 58.9621
rwrist 4.63813
rhand -22.3787 -58.553
rfingers 7.12502
rthumb 4.04304 -88.4944
lclavicle 9.47333e-017 -1.87852e-014
lhumerus -40.4285 -20.8117 77.2026
lradius 65.9399
lwrist -1.88575
lhand -32.141 -43.7569
lfingers 7.12502
lthumb -5.38489 -13.8453
rfemur -98.0806 5.23288 22.1675
rtibia 140.218
rfoot -3.27387 -10.0585
rtoes -0.524563
lfemur -5.31158 -5.24386 -15.285
ltibia 0
lfoot 27.9966 12.2453
ltoes -10.4903
570
root 4.92422 20.1247 7.21436 11.9237 -2.96435 -7.56585
lowerback -0.0265346 -3.06336 3.76864
upperback -6.17603 -3.79217 3.85955
thorax -6.39941 -1.9751 2.13552
lowerneck -9.62923 -9.20468 -11.2147
upperneck 21.3863 -11.3488 2.36692
head 9.10374 -6.02442 1.34702
rclavicle -4.5823e-014 1.09332e-015
rhumerus -46.4735 0.016073 -81.5703
rradius 58.4756
rwrist 4.21266
rhand -22.0299 -59.224
rfingers 7.12502
rthumb 4.37992 -89.1587
lclavicle -4.5823e-014 1.09332e-015
lhumerus -40.9743 -20.5905 77.8913
lradius 65.491
lwrist -1.85502
lhand -32.1593 -43.1961
lfingers 7.12502
lthumb -5.40258 -13.285
rfemur -98.3139 5.34213 22.4338
rtibia 140.648
rfoot -3.08312 -10.0135
rtoes -1.4557
lfemur -5.56796 -5.08535 -15.8268
ltibia 1.03368e-014
lfoot 27.9403 10.6011
ltoes -11.4198
571
root 4.91726 20.156 7.20109 12.026 -3.17113 -7.32259
lowerback 0.367459 -3.03413 3.61052
upperback -6.33743 -3.7319 3.78359
thorax -6.79357 -1.93977 2.17559
lowerneck -9.81051 -9.43068 -11.2779
upperneck 21.6454 -11.6103 2.23257
head 9.24341 -6.16482 1.26189
rclavicle -3.37344e-014 1.58034e-014
rhumerus -46.3162 0.4737 -81.8125
rradius 57.7822
rwrist 4.34983
rhand -12.2228 -69.7871
rfingers 7.12502
rthumb 13.8423 -260.693
lclavicle -3.37344e-014 1.58034e-014
lhumerus -41.3618 -20.253 78.53
lradius 65.0515
lwrist -1.7865
lhand -32.4952 -42.6571
lfingers 7.12502
lthumb -5.72687 -12.7545
rfemur -98.5481 5.69264 22.6291
rtibia 140.907
rfoot -2.76031 -10.0613
rtoes -1.16547
lfemur -5.82849 -4.87739 -16.3693
ltibia 1.27222e-014
lfoot 27.5477 8.46517
ltoes -12.9245
